<svg viewBox="0 0 1400 1000" xmlns="http://www.w3.org/2000/svg">
  <metadata>
    <design-params>
      <page-type>dapp-interface</page-type>
      <layout>dashboard-grid</layout>
      <components>wallet-connect, deposit-withdraw, portfolio, protocol-stats</components>
      <responsive>true</responsive>
      <accessibility>WCAG-2.1-AA</accessibility>
      <created>2024-12-19T00:00:00+08:00</created>
    </design-params>
  </metadata>
  
  <!-- Background -->
  <rect x="0" y="0" width="1400" height="1000" fill="#0a0a0a"/>
  
  <!-- Header -->
  <rect x="0" y="0" width="1400" height="80" fill="#1a1a1a" stroke="#333"/>
  <text x="50" y="50" font-family="Arial" font-size="24" font-weight="bold" fill="#fff">HypeUSD</text>
  <text x="200" y="50" font-family="Arial" font-size="16" fill="#888">dApp</text>
  
  <!-- Network Status -->
  <circle cx="600" cy="40" r="8" fill="#00ff88"/>
  <text x="620" y="46" font-family="Arial" font-size="14" fill="#888">Ethereum Mainnet</text>
  
  <!-- Wallet Connection -->
  <rect x="1200" y="25" width="150" height="50" fill="#0066ff" rx="8"/>
  <text x="1275" y="55" font-family="Arial" font-size="14" fill="#fff" text-anchor="middle">0x1234...5678</text>
  
  <!-- Main Content Area -->
  <rect x="50" y="100" width="1300" height="880" fill="transparent"/>
  
  <!-- Left Panel - Portfolio Overview -->
  <rect x="50" y="120" width="400" height="600" fill="#1a1a1a" rx="12" stroke="#333"/>
  <text x="70" y="150" font-family="Arial" font-size="20" font-weight="bold" fill="#fff">我的资产</text>
  
  <!-- Portfolio Stats -->
  <rect x="70" y="170" width="360" height="100" fill="#0f0f0f" rx="8" stroke="#444"/>
  <text x="90" y="200" font-family="Arial" font-size="14" fill="#888">总资产价值</text>
  <text x="90" y="230" font-family="Arial" font-size="32" font-weight="bold" fill="#fff">$12,845.67</text>
  <text x="90" y="250" font-family="Arial" font-size="14" fill="#00ff88">+$145.23 (+1.14%)</text>
  
  <!-- Asset Breakdown -->
  <rect x="70" y="290" width="170" height="80" fill="#0f0f0f" rx="8" stroke="#444"/>
  <text x="90" y="315" font-family="Arial" font-size="14" fill="#888">hypeUSD余额</text>
  <text x="90" y="340" font-family="Arial" font-size="18" font-weight="bold" fill="#0066ff">12,845.67</text>
  <text x="90" y="355" font-family="Arial" font-size="12" fill="#888">≈ $12,845.67</text>
  
  <rect x="260" y="290" width="170" height="80" fill="#0f0f0f" rx="8" stroke="#444"/>
  <text x="280" y="315" font-family="Arial" font-size="14" fill="#888">未结算收益</text>
  <text x="280" y="340" font-family="Arial" font-size="18" font-weight="bold" fill="#00ff88">+45.23</text>
  <text x="280" y="355" font-family="Arial" font-size="12" fill="#888">hypeUSD</text>
  
  <!-- Yield Information -->
  <rect x="70" y="390" width="360" height="120" fill="#0f0f0f" rx="8" stroke="#444"/>
  <text x="90" y="420" font-family="Arial" font-size="16" font-weight="bold" fill="#fff">收益详情</text>
  <text x="90" y="445" font-family="Arial" font-size="14" fill="#888">当前APY</text>
  <text x="350" y="445" font-family="Arial" font-size="14" font-weight="bold" fill="#0066ff" text-anchor="end">12.8%</text>
  <text x="90" y="465" font-family="Arial" font-size="14" fill="#888">日收益</text>
  <text x="350" y="465" font-family="Arial" font-size="14" font-weight="bold" fill="#00ff88" text-anchor="end">+$1.42</text>
  <text x="90" y="485" font-family="Arial" font-size="14" fill="#888">累计收益</text>
  <text x="350" y="485" font-family="Arial" font-size="14" font-weight="bold" fill="#00ff88" text-anchor="end">+$287.56</text>
  
  <!-- Transaction History -->
  <rect x="70" y="530" width="360" height="160" fill="#0f0f0f" rx="8" stroke="#444"/>
  <text x="90" y="560" font-family="Arial" font-size="16" font-weight="bold" fill="#fff">交易历史</text>
  
  <text x="90" y="585" font-family="Arial" font-size="12" fill="#888">存款</text>
  <text x="350" y="585" font-family="Arial" font-size="12" fill="#00ff88" text-anchor="end">+5,000 USDT</text>
  <text x="350" y="600" font-family="Arial" font-size="10" fill="#666" text-anchor="end">2024-12-18</text>
  
  <text x="90" y="625" font-family="Arial" font-size="12" fill="#888">存款</text>
  <text x="350" y="625" font-family="Arial" font-size="12" fill="#00ff88" text-anchor="end">+7,500 USDT</text>
  <text x="350" y="640" font-family="Arial" font-size="10" fill="#666" text-anchor="end">2024-12-15</text>
  
  <text x="90" y="665" font-family="Arial" font-size="12" fill="#888">赎回</text>
  <text x="350" y="665" font-family="Arial" font-size="12" fill="#ff6b6b" text-anchor="end">-500 hypeUSD</text>
  <text x="350" y="680" font-family="Arial" font-size="10" fill="#666" text-anchor="end">2024-12-10</text>
  
  <!-- Center Panel - Main Actions -->
  <rect x="470" y="120" width="460" height="600" fill="#1a1a1a" rx="12" stroke="#333"/>
  
  <!-- Tab Navigation -->
  <rect x="490" y="140" width="100" height="40" fill="#0066ff" rx="6"/>
  <text x="540" y="165" font-family="Arial" font-size="14" fill="#fff" text-anchor="middle">存款</text>
  <rect x="600" y="140" width="100" height="40" fill="transparent" stroke="#666" rx="6"/>
  <text x="650" y="165" font-family="Arial" font-size="14" fill="#666" text-anchor="middle">赎回</text>
  
  <!-- Exchange Rate Display -->
  <rect x="490" y="200" width="420" height="60" fill="#0f0f0f" rx="8" stroke="#444"/>
  <text x="510" y="230" font-family="Arial" font-size="14" fill="#888">当前汇率</text>
  <text x="700" y="230" font-family="Arial" font-size="18" font-weight="bold" fill="#0066ff" text-anchor="middle">1 USDT = 1.00 hypeUSD</text>
  <text x="890" y="230" font-family="Arial" font-size="12" fill="#888" text-anchor="end">手续费: 0.1%</text>
  
  <!-- Amount Input -->
  <rect x="490" y="280" width="420" height="100" fill="#0f0f0f" rx="8" stroke="#444"/>
  <text x="510" y="310" font-family="Arial" font-size="14" fill="#888">存入金额</text>
  <rect x="510" y="320" width="300" height="40" fill="#1a1a1a" stroke="#666" rx="6"/>
  <text x="520" y="345" font-family="Arial" font-size="16" fill="#fff">5,000.00</text>
  <text x="820" y="330" font-family="Arial" font-size="14" fill="#888">USDT</text>
  <text x="820" y="350" font-family="Arial" font-size="12" fill="#666">余额: 15,247.83</text>
  <rect x="840" y="325" width="60" height="30" fill="#333" rx="4"/>
  <text x="870" y="345" font-family="Arial" font-size="12" fill="#888" text-anchor="middle">最大</text>
  
  <!-- Expected Output -->
  <rect x="490" y="400" width="420" height="60" fill="#0f0f0f" rx="8" stroke="#444"/>
  <text x="510" y="430" font-family="Arial" font-size="14" fill="#888">预计获得</text>
  <text x="700" y="440" font-family="Arial" font-size="20" font-weight="bold" fill="#00ff88" text-anchor="middle">4,995.00 hypeUSD</text>
  
  <!-- Action Buttons -->
  <rect x="490" y="480" width="200" height="50" fill="#0066ff" rx="8"/>
  <text x="590" y="510" font-family="Arial" font-size="16" fill="#fff" text-anchor="middle">确认存款</text>
  <rect x="710" y="480" width="200" height="50" fill="transparent" stroke="#666" rx="8"/>
  <text x="810" y="510" font-family="Arial" font-size="16" fill="#666" text-anchor="middle">连接钱包</text>
  
  <!-- Transaction Info -->
  <rect x="490" y="550" width="420" height="150" fill="#0f0f0f" rx="8" stroke="#444"/>
  <text x="510" y="580" font-family="Arial" font-size="16" font-weight="bold" fill="#fff">交易信息</text>
  <text x="510" y="605" font-family="Arial" font-size="14" fill="#888">预计Gas费用</text>
  <text x="890" y="605" font-family="Arial" font-size="14" fill="#fff" text-anchor="end">~$12.45</text>
  <text x="510" y="625" font-family="Arial" font-size="14" fill="#888">处理时间</text>
  <text x="890" y="625" font-family="Arial" font-size="14" fill="#fff" text-anchor="end">~2分钟</text>
  <text x="510" y="645" font-family="Arial" font-size="14" fill="#888">最小存款</text>
  <text x="890" y="645" font-family="Arial" font-size="14" fill="#fff" text-anchor="end">100 USDT</text>
  <text x="510" y="665" font-family="Arial" font-size="14" fill="#888">协议状态</text>
  <circle cx="880" cy="661" r="6" fill="#00ff88"/>
  <text x="890" y="665" font-family="Arial" font-size="14" fill="#00ff88" text-anchor="start">正常</text>
  
  <!-- Right Panel - Protocol Stats -->
  <rect x="950" y="120" width="400" height="600" fill="#1a1a1a" rx="12" stroke="#333"/>
  <text x="970" y="150" font-family="Arial" font-size="20" font-weight="bold" fill="#fff">协议状态</text>
  
  <!-- TVL and Stats -->
  <rect x="970" y="170" width="360" height="120" fill="#0f0f0f" rx="8" stroke="#444"/>
  <text x="990" y="200" font-family="Arial" font-size="14" fill="#888">总锁仓量 (TVL)</text>
  <text x="990" y="230" font-family="Arial" font-size="28" font-weight="bold" fill="#0066ff">$2,847,629</text>
  <text x="990" y="250" font-family="Arial" font-size="14" fill="#00ff88">+$125,480 (+4.6%)</text>
  <text x="990" y="270" font-family="Arial" font-size="12" fill="#888">过去24小时</text>
  
  <!-- Protocol Health -->
  <rect x="970" y="310" width="175" height="100" fill="#0f0f0f" rx="8" stroke="#444"/>
  <text x="990" y="335" font-family="Arial" font-size="14" fill="#888">Delta状态</text>
  <text x="990" y="360" font-family="Arial" font-size="20" font-weight="bold" fill="#00ff88">0.02%</text>
  <text x="990" y="380" font-family="Arial" font-size="12" fill="#888">近乎中性</text>
  <circle cx="1140" cy="350" r="15" fill="#00ff88" opacity="0.2"/>
  <circle cx="1140" cy="350" r="8" fill="#00ff88"/>
  
  <rect x="1155" y="310" width="175" height="100" fill="#0f0f0f" rx="8" stroke="#444"/>
  <text x="1175" y="335" font-family="Arial" font-size="14" fill="#888">当前APY</text>
  <text x="1175" y="360" font-family="Arial" font-size="20" font-weight="bold" fill="#0066ff">12.8%</text>
  <text x="1175" y="380" font-family="Arial" font-size="12" fill="#888">Funding费率</text>
  
  <!-- Position Details -->
  <rect x="970" y="430" width="360" height="160" fill="#0f0f0f" rx="8" stroke="#444"/>
  <text x="990" y="460" font-family="Arial" font-size="16" font-weight="bold" fill="#fff">头寸详情</text>
  
  <text x="990" y="485" font-family="Arial" font-size="14" fill="#888">BTC现货</text>
  <text x="1310" y="485" font-family="Arial" font-size="14" fill="#00ff88" text-anchor="end">+128.45 BTC</text>
  <text x="990" y="505" font-family="Arial" font-size="14" fill="#888">BTC永续空单</text>
  <text x="1310" y="505" font-family="Arial" font-size="14" fill="#ff6b6b" text-anchor="end">-128.42 BTC</text>
  <text x="990" y="525" font-family="Arial" font-size="14" fill="#888">净敞口</text>
  <text x="1310" y="525" font-family="Arial" font-size="14" font-weight="bold" fill="#00ff88" text-anchor="end">+0.03 BTC</text>
  
  <text x="990" y="550" font-family="Arial" font-size="14" fill="#888">保证金比率</text>
  <text x="1310" y="550" font-family="Arial" font-size="14" fill="#0066ff" text-anchor="end">245.7%</text>
  <text x="990" y="570" font-family="Arial" font-size="14" fill="#888">清算价格</text>
  <text x="1310" y="570" font-family="Arial" font-size="14" fill="#888" text-anchor="end">$15,420</text>
  
  <!-- Risk Indicators -->
  <rect x="970" y="610" width="360" height="80" fill="#0f0f0f" rx="8" stroke="#444"/>
  <text x="990" y="640" font-family="Arial" font-size="16" font-weight="bold" fill="#fff">风险指标</text>
  <text x="990" y="665" font-family="Arial" font-size="14" fill="#888">系统风险等级</text>
  <rect x="1150" y="652" width="60" height="20" fill="#00ff88" rx="10"/>
  <text x="1180" y="665" font-family="Arial" font-size="12" fill="#000" text-anchor="middle">低风险</text>
  
  <!-- Bottom Info Bar -->
  <rect x="50" y="740" width="1300" height="60" fill="#1a1a1a" rx="8" stroke="#333"/>
  <text x="70" y="770" font-family="Arial" font-size="14" fill="#888">协议版本: v1.0.0</text>
  <text x="250" y="770" font-family="Arial" font-size="14" fill="#888">|</text>
  <text x="270" y="770" font-family="Arial" font-size="14" fill="#888">最后更新: 2分钟前</text>
  <text x="450" y="770" font-family="Arial" font-size="14" fill="#888">|</text>
  <text x="470" y="770" font-family="Arial" font-size="14" fill="#888">网络状态: 正常</text>
  
  <text x="1270" y="770" font-family="Arial" font-size="14" fill="#888" text-anchor="end">帮助文档</text>
  <text x="1200" y="770" font-family="Arial" font-size="14" fill="#888" text-anchor="end">|</text>
  <text x="1180" y="770" font-family="Arial" font-size="14" fill="#888" text-anchor="end">支持</text>
  
  <!-- Mobile Responsive Indicator -->
  <circle cx="1320" cy="40" r="5" fill="#888"/>
  <circle cx="1335" cy="40" r="5" fill="#888"/>
  <circle cx="1350" cy="40" r="5" fill="#888"/>
</svg>
